<svg width="400" height="654.545" xmlns="http://www.w3.org/2000/svg"><g fill="#fff" fill-rule="evenodd"><path d="M275.2 10.2v10.2h-34.4v1.2c0 1.013-.156 1.2-1 1.2h-1v34h-34.4V58c0 1.013-.156 1.2-1 1.2h-1v34h-34v1.2c0 1.067-.133 1.2-1.2 1.2H166v34h-34v1c0 .844-.187 1-1.2 1h-1.2V166h-34v1c0 .844-.187 1-1.2 1h-1.2v34.4h-34v1c0 .844-.187 1-1.2 1h-1.2v34h-34v1.2c0 1.067-.133 1.2-1.2 1.2h-1.2v34H0v106.8h20.4V416h1.2c1.013 0 1.2.156 1.2 1v1h34v34H58c1.067 0 1.2.133 1.2 1.2v1.2h34v34h1.2c1.067 0 1.2.133 1.2 1.2v1.2h34v34h1.2c1.067 0 1.2.133 1.2 1.2v1.2h34v34h1.2c1.067 0 1.2.133 1.2 1.2v1.2h34v34h1c.844 0 1 .187 1 1.2v1.2h34.4v34h1c.844 0 1 .187 1 1.2v1.2h34.4v18h70.4v-18h34v-1.2c0-1.067.133-1.2 1.2-1.2h1.2v-34h18V456.8h-18v-34h-1.2c-1.067 0-1.2-.133-1.2-1.2v-1.2h-34v-34h-1.2c-1.067 0-1.2-.133-1.2-1.2V384h-34v-34H308c-1.067 0-1.2-.133-1.2-1.2v-1.2h-34v-38.4h34V308c0-1.067.133-1.2 1.2-1.2h1.2v-34h34v-1.2c0-1.067.133-1.2 1.2-1.2h1.2v-34h34v-1.2c0-1.067.133-1.2 1.2-1.2h1.2v-34h18V56.8h-18v-34h-1.2c-1.067 0-1.2-.133-1.2-1.2v-1.2h-34V0h-70.4v10.2"/><path d="M275.2 10.2v10.2h-34.4v1.2c0 1.013-.156 1.2-1 1.2h-1v34h-34.4V58c0 1.013-.156 1.2-1 1.2h-1v34h-34v1.2c0 1.067-.133 1.2-1.2 1.2H166v34h-34v1c0 .844-.187 1-1.2 1h-1.2V166h-34v1c0 .844-.187 1-1.2 1h-1.2v34.4h-34v1c0 .844-.187 1-1.2 1h-1.2v34h-34v1.2c0 1.067-.133 1.2-1.2 1.2h-1.2v34H0v106.8h20.4V416h1.2c1.013 0 1.2.156 1.2 1v1h34v34H58c1.067 0 1.2.133 1.2 1.2v1.2h34v34h1.2c1.067 0 1.2.133 1.2 1.2v1.2h34v34h1.2c1.067 0 1.2.133 1.2 1.2v1.2h34v34h1.2c1.067 0 1.2.133 1.2 1.2v1.2h34v34h1c.844 0 1 .187 1 1.2v1.2h34.4v34h1c.844 0 1 .187 1 1.2v1.2h34.4v18h70.4v-18h34v-1.2c0-1.067.133-1.2 1.2-1.2h1.2v-34h18V456.8h-18v-34h-1.2c-1.067 0-1.2-.133-1.2-1.2v-1.2h-34v-34h-1.2c-1.067 0-1.2-.133-1.2-1.2V384h-34v-34H308c-1.067 0-1.2-.133-1.2-1.2v-1.2h-34v-38.4h34V308c0-1.067.133-1.2 1.2-1.2h1.2v-34h34v-1.2c0-1.067.133-1.2 1.2-1.2h1.2v-34h34v-1.2c0-1.067.133-1.2 1.2-1.2h1.2v-34h18V56.8h-18v-34h-1.2c-1.067 0-1.2-.133-1.2-1.2v-1.2h-34V0h-70.4v10.2"/><path d="M275.2 10.2v10.2h-34.4v1.2c0 1.013-.156 1.2-1 1.2h-1v34h-34.4V58c0 1.013-.156 1.2-1 1.2h-1v34h-34v1.2c0 1.067-.133 1.2-1.2 1.2H166v34h-34v1c0 .844-.187 1-1.2 1h-1.2V166h-34v1c0 .844-.187 1-1.2 1h-1.2v34.4h-34v1c0 .844-.187 1-1.2 1h-1.2v34h-34v1.2c0 1.067-.133 1.2-1.2 1.2h-1.2v34H0v106.8h20.4V416h1.2c1.013 0 1.2.156 1.2 1v1h34v34H58c1.067 0 1.2.133 1.2 1.2v1.2h34v34h1.2c1.067 0 1.2.133 1.2 1.2v1.2h34v34h1.2c1.067 0 1.2.133 1.2 1.2v1.2h34v34h1.2c1.067 0 1.2.133 1.2 1.2v1.2h34v34h1c.844 0 1 .187 1 1.2v1.2h34.4v34h1c.844 0 1 .187 1 1.2v1.2h34.4v18h70.4v-18h34v-1.2c0-1.067.133-1.2 1.2-1.2h1.2v-34h18V456.8h-18v-34h-1.2c-1.067 0-1.2-.133-1.2-1.2v-1.2h-34v-34h-1.2c-1.067 0-1.2-.133-1.2-1.2V384h-34v-34H308c-1.067 0-1.2-.133-1.2-1.2v-1.2h-34v-38.4h34V308c0-1.067.133-1.2 1.2-1.2h1.2v-34h34v-1.2c0-1.067.133-1.2 1.2-1.2h1.2v-34h34v-1.2c0-1.067.133-1.2 1.2-1.2h1.2v-34h18V56.8h-18v-34h-1.2c-1.067 0-1.2-.133-1.2-1.2v-1.2h-34V0h-70.4v10.2"/><path d="M275.2 10.2v10.2h-34.4v1.2c0 1.013-.156 1.2-1 1.2h-1v34h-34.4V58c0 1.013-.156 1.2-1 1.2h-1v34h-34v1.2c0 1.067-.133 1.2-1.2 1.2H166v34h-34v1c0 .844-.187 1-1.2 1h-1.2V166h-34v1c0 .844-.187 1-1.2 1h-1.2v34.4h-34v1c0 .844-.187 1-1.2 1h-1.2v34h-34v1.2c0 1.067-.133 1.2-1.2 1.2h-1.2v34H0v106.8h20.4V416h1.2c1.013 0 1.2.156 1.2 1v1h34v34H58c1.067 0 1.2.133 1.2 1.2v1.2h34v34h1.2c1.067 0 1.2.133 1.2 1.2v1.2h34v34h1.2c1.067 0 1.2.133 1.2 1.2v1.2h34v34h1.2c1.067 0 1.2.133 1.2 1.2v1.2h34v34h1c.844 0 1 .187 1 1.2v1.2h34.4v34h1c.844 0 1 .187 1 1.2v1.2h34.4v18h70.4v-18h34v-1.2c0-1.067.133-1.2 1.2-1.2h1.2v-34h18V456.8h-18v-34h-1.2c-1.067 0-1.2-.133-1.2-1.2v-1.2h-34v-34h-1.2c-1.067 0-1.2-.133-1.2-1.2V384h-34v-34H308c-1.067 0-1.2-.133-1.2-1.2v-1.2h-34v-38.4h34V308c0-1.067.133-1.2 1.2-1.2h1.2v-34h34v-1.2c0-1.067.133-1.2 1.2-1.2h1.2v-34h34v-1.2c0-1.067.133-1.2 1.2-1.2h1.2v-34h18V56.8h-18v-34h-1.2c-1.067 0-1.2-.133-1.2-1.2v-1.2h-34V0h-70.4v10.2"/><path d="M275.2 10.2v10.2h-34.4v1.2c0 1.013-.156 1.2-1 1.2h-1v34h-34.4V58c0 1.013-.156 1.2-1 1.2h-1v34h-34v1.2c0 1.067-.133 1.2-1.2 1.2H166v34h-34v1c0 .844-.187 1-1.2 1h-1.2V166h-34v1c0 .844-.187 1-1.2 1h-1.2v34.4h-34v1c0 .844-.187 1-1.2 1h-1.2v34h-34v1.2c0 1.067-.133 1.2-1.2 1.2h-1.2v34H0v106.8h20.4V416h1.2c1.013 0 1.2.156 1.2 1v1h34v34H58c1.067 0 1.2.133 1.2 1.2v1.2h34v34h1.2c1.067 0 1.2.133 1.2 1.2v1.2h34v34h1.2c1.067 0 1.2.133 1.2 1.2v1.2h34v34h1.2c1.067 0 1.2.133 1.2 1.2v1.2h34v34h1c.844 0 1 .187 1 1.2v1.2h34.4v34h1c.844 0 1 .187 1 1.2v1.2h34.4v18h70.4v-18h34v-1.2c0-1.067.133-1.2 1.2-1.2h1.2v-34h18V456.8h-18v-34h-1.2c-1.067 0-1.2-.133-1.2-1.2v-1.2h-34v-34h-1.2c-1.067 0-1.2-.133-1.2-1.2V384h-34v-34H308c-1.067 0-1.2-.133-1.2-1.2v-1.2h-34v-38.4h34V308c0-1.067.133-1.2 1.2-1.2h1.2v-34h34v-1.2c0-1.067.133-1.2 1.2-1.2h1.2v-34h34v-1.2c0-1.067.133-1.2 1.2-1.2h1.2v-34h18V56.8h-18v-34h-1.2c-1.067 0-1.2-.133-1.2-1.2v-1.2h-34V0h-70.4v10.2"/></g></svg>