<svg xmlns="http://www.w3.org/2000/svg" viewBox="0 0 337.76 337.76" fill="#f8401d"><path d="M320.88 67.76H223.6V35.92c0-9.323-7.557-16.88-16.88-16.88h-75.76c-9.323 0-16.88 7.557-16.88 16.88v31.92h-97.2C7.557 67.84 0 75.397 0 84.72v217.12c0 9.323 7.557 16.88 16.88 16.88h304c9.323 0 16.88-7.557 16.88-16.88V84.64c0-9.323-7.557-16.88-16.88-16.88zm-190.8-.96l.16-31.04a.88.88 0 0 1 .88-.88h75.92a.88.88 0 0 1 .88.88V66.8a.88.88 0 0 1-.88.88h-76.08a.88.88 0 0 1-.88-.88zM16.88 83.76h304c-7.52 14.24-46.64 81.6-119.44 97.76v-9.28c.002-9.199-7.363-16.706-16.56-16.88h-32c-9.323 0-16.88 7.557-16.88 16.88v9.44c-72.72-16-112-83.6-119.44-97.76l.32-.16zm168.64 88.48v46.56a.88.88 0 0 1-.88.88h-31.76a.88.88 0 0 1-.88-.88v-46.56a.88.88 0 0 1 .88-.88h32a.88.88 0 0 1 .64.88zm136 129.68a.88.88 0 0 1-.88.88H16.88a.88.88 0 0 1-.88-.88V113.68c19.68 28.56 58.88 72 120 84.32v20.72c0 9.323 7.557 16.88 16.88 16.88h32c9.323 0 16.88-7.557 16.88-16.88V198c61.12-12.16 100.32-56 120-84.32l-.24 188.24z"/></svg>