<?xml version="1.0" encoding="utf-8"?>
<!-- Generator: Adobe Illustrator 22.1.0, SVG Export Plug-In . SVG Version: 6.00 Build 0)  -->
<svg version="1.1" id="Слой_1" xmlns="http://www.w3.org/2000/svg" xmlns:xlink="http://www.w3.org/1999/xlink" x="0px" y="0px"
	 viewBox="0 0 512 512" style="enable-background:new 0 0 512 512;display:none;" xml:space="preserve">
<style type="text/css">
	.st0{fill:#F8401D;}
</style>
<path style="display:inline;fill:#F8401D;" d="M436,306c-5.5,0-10,4.5-10,10s4.5,10,10,10s10-4.5,10-10S441.5,306,436,306z M256,306
	c-5.5,0-10,4.5-10,10s4.5,10,10,10c5.5,0,10-4.5,10-10S261.5,306,256,306z M76,306c-5.5,0-10,4.5-10,10s4.5,10,10,10s10-4.5,10-10
	S81.5,306,76,306z M316,366h-50v-10c0-5.5-4.5-10-10-10s-10,4.5-10,10v10h-50c-5.5,0-10,4.5-10,10v126c0,5.5,4.5,10,10,10h120
	c5.5,0,10-4.5,10-10V376C326,370.5,321.5,366,316,366z M306,492H206V386h100V492z M502,366h-53v-10c0-5.5-4.5-10-10-10
	s-10,4.5-10,10v10h-53c-5.5,0-10,4.5-10,10v126c0,5.5,4.5,10,10,10h126c5.5,0,10-4.5,10-10V376C512,370.5,507.5,366,502,366z
	 M492,492H386V386h106V492z M136,366H83v-10c0-5.5-4.5-10-10-10s-10,4.5-10,10v10H10c-5.5,0-10,4.5-10,10v126c0,5.5,4.5,10,10,10
	h126c5.5,0,10-4.5,10-10V376C146,370.5,141.5,366,136,366z M126,492H20V386h106V492z"/>
<path style="display:inline;fill:#F8401D;" d="M93,406H53c-5.5,0-10,4.5-10,10s4.5,10,10,10h40c5.5,0,10-4.5,10-10S98.5,406,93,406z
	 M93,449H53c-5.5,0-10,4.5-10,10s4.5,10,10,10h40c5.5,0,10-4.5,10-10S98.5,449,93,449z M276,406h-40c-5.5,0-10,4.5-10,10
	s4.5,10,10,10h40c5.5,0,10-4.5,10-10S281.5,406,276,406z M276,449h-40c-5.5,0-10,4.5-10,10s4.5,10,10,10h40c5.5,0,10-4.5,10-10
	S281.5,449,276,449z M459,406h-40c-5.5,0-10,4.5-10,10s4.5,10,10,10h40c5.5,0,10-4.5,10-10S464.5,406,459,406z M459,449h-40
	c-5.5,0-10,4.5-10,10s4.5,10,10,10h40c5.5,0,10-4.5,10-10S464.5,449,459,449z M416,243H266v-23h10c5.5,0,10-4.5,10-10v-26.2
	c6.9-2.8,13.3-6.4,19-10.9l22.6,13c4.8,2.8,10.9,1.1,13.7-3.7c0,0,0,0,0,0l20-34.6c2.8-4.8,1.1-10.9-3.7-13.7l-22.5-13
	c0.6-3.8,0.9-7.5,0.9-11s-0.3-7.2-0.9-11l22.5-13c4.8-2.8,6.4-8.9,3.7-13.7l-20-34.6c-2.8-4.8-8.9-6.4-13.7-3.7c0,0,0,0,0,0L305,47
	c-5.8-4.5-12.1-8.1-19-10.9V10c0-5.5-4.5-10-10-10h-40c-5.5,0-10,4.5-10,10v26.2c-6.9,2.8-13.3,6.4-19,10.9l-22.6-13
	c-4.8-2.8-10.9-1.1-13.7,3.7l-20,34.6c-2.8,4.8-1.1,10.9,3.7,13.7l22.5,13c-0.6,3.8-0.9,7.5-0.9,11s0.3,7.2,0.9,11l-22.5,13
	c-4.8,2.8-6.4,8.9-3.7,13.7l20,34.6c2.8,4.8,8.9,6.4,13.7,3.7l22.6-13c5.7,4.4,12.2,8.1,19,10.9V210c0,5.5,4.5,10,10,10h10v23H96
	c-16.5,0-30,13.5-30,30c0,5.5,4.5,10,10,10s10-4.5,10-10c0-5.5,4.5-10,10-10h150v10c0,5.5,4.5,10,10,10s10-4.5,10-10v-10h150
	c5.5,0,10,4.5,10,10c0,5.5,4.5,10,10,10s10-4.5,10-10C446,256.5,432.5,243,416,243z M246,200v-23.3c0-4.4-2.9-8.3-7.1-9.6
	c-9.2-2.8-17.3-7.4-23.9-13.7c-3.2-3-8-3.6-11.9-1.4l-20,11.6l-10-17.3l20-11.5c3.8-2.2,5.8-6.7,4.7-11c-1.2-5-1.8-9.6-1.8-13.8
	s0.6-8.8,1.8-13.8c1-4.3-0.9-8.8-4.7-11l-20-11.5l10-17.3l20,11.6c3.8,2.2,8.7,1.6,11.9-1.4c6.7-6.3,14.7-10.9,23.9-13.7
	c4.2-1.3,7.1-5.2,7.1-9.6V20h20v23.3c0,4.4,2.9,8.3,7.1,9.6c9.2,2.8,17.3,7.4,23.9,13.7c3.2,3,8,3.6,11.9,1.4l20-11.6l10,17.3
	l-20,11.5c-3.8,2.2-5.8,6.7-4.7,11c1.2,5,1.8,9.6,1.8,13.8s-0.6,8.8-1.8,13.8c-1,4.3,0.9,8.8,4.7,11l20,11.5l-10,17.3l-20-11.6
	c-3.8-2.2-8.7-1.6-11.9,1.4c-6.7,6.3-14.7,10.9-23.9,13.7c-4.2,1.3-7.1,5.2-7.1,9.6V200H246L246,200z"/>
<path style="display:inline;fill:#F8401D;" d="M256,70c-22.1,0-40,17.9-40,40s17.9,40,40,40s40-17.9,40-40S278.1,70,256,70z
	 M256,130c-11,0-20-9-20-20s9-20,20-20c11,0,20,9,20,20S267,130,256,130z"/>
</svg>
