<svg xmlns="http://www.w3.org/2000/svg" viewBox="0 0 512 512" fill="#f8401d"><path d="M436 306c-5.52 0-10 4.48-10 10s4.48 10 10 10 10-4.48 10-10-4.48-10-10-10zm-180 0c-5.52 0-10 4.48-10 10s4.48 10 10 10 10-4.48 10-10-4.48-10-10-10zm-180 0c-5.52 0-10 4.48-10 10s4.48 10 10 10 10-4.48 10-10-4.48-10-10-10zm240 60h-50v-10c0-5.522-4.478-10-10-10s-10 4.478-10 10v10h-50c-5.523 0-10 4.478-10 10v126c0 5.522 4.477 10 10 10h120c5.522 0 10-4.478 10-10V376c0-5.522-4.478-10-10-10zm-10 126H206V386h100v106zm196-126h-53v-10c0-5.522-4.478-10-10-10s-10 4.478-10 10v10h-53c-5.522 0-10 4.478-10 10v126c0 5.522 4.478 10 10 10h126c5.522 0 10-4.478 10-10V376c0-5.522-4.478-10-10-10zm-10 126H386V386h106v106zM136 366H83v-10c0-5.522-4.477-10-10-10s-10 4.478-10 10v10H10c-5.523 0-10 4.478-10 10v126c0 5.522 4.477 10 10 10h126c5.523 0 10-4.478 10-10V376c0-5.522-4.477-10-10-10zm-10 126H20V386h106v106z"/><path d="M93 406H53c-5.523 0-10 4.478-10 10s4.477 10 10 10h40c5.523 0 10-4.478 10-10s-4.477-10-10-10zm0 43H53c-5.523 0-10 4.478-10 10s4.477 10 10 10h40c5.523 0 10-4.478 10-10s-4.477-10-10-10zm183-43h-40c-5.523 0-10 4.478-10 10s4.477 10 10 10h40c5.522 0 10-4.478 10-10s-4.478-10-10-10zm0 43h-40c-5.523 0-10 4.478-10 10s4.477 10 10 10h40c5.522 0 10-4.478 10-10s-4.478-10-10-10zm183-43h-40c-5.522 0-10 4.478-10 10s4.478 10 10 10h40c5.522 0 10-4.478 10-10s-4.478-10-10-10zm0 43h-40c-5.522 0-10 4.478-10 10s4.478 10 10 10h40c5.522 0 10-4.478 10-10s-4.478-10-10-10zm-43-206H266v-23h10c5.522 0 10-4.478 10-10v-26.175c6.911-2.771 13.277-6.407 19.037-10.873l22.562 13.028a10 10 0 0 0 13.661-3.66l20-34.641c2.762-4.782 1.123-10.898-3.659-13.66l-22.473-12.977c.585-3.811.872-7.465.872-11.042s-.287-7.231-.872-11.043l22.473-12.977c4.782-2.762 6.421-8.878 3.659-13.66l-20-34.641a10 10 0 0 0-13.661-3.66l-22.562 13.028c-5.76-4.466-12.126-8.102-19.037-10.873V10c0-5.522-4.478-10-10-10h-40c-5.523 0-10 4.478-10 10v26.188c-6.861 2.772-13.284 6.442-19.019 10.866l-22.582-13.035c-4.782-2.759-10.898-1.122-13.659 3.661l-20 34.641c-2.761 4.782-1.123 10.898 3.66 13.66l22.472 12.977c-.585 3.809-.872 7.464-.872 11.042s.287 7.233.872 11.043L154.4 134.02c-4.783 2.762-6.421 8.878-3.66 13.66l20 34.641c2.761 4.782 8.878 6.421 13.659 3.661l22.582-13.035c5.735 4.424 12.158 8.094 19.019 10.866V210c0 5.522 4.477 10 10 10h10v23H96c-16.542 0-30 13.458-30 30 0 5.522 4.477 10 10 10s10-4.478 10-10c0-5.514 4.486-10 10-10h150v10c0 5.522 4.478 10 10 10s10-4.478 10-10v-10h150c5.514 0 10 4.486 10 10 0 5.522 4.478 10 10 10s10-4.478 10-10c0-16.542-13.458-30-30-30zm-169.999-43v-23.26a10.003 10.003 0 0 0-7.117-9.575c-9.209-2.773-17.259-7.374-23.926-13.674a10.003 10.003 0 0 0-11.867-1.393l-20.03 11.563-10-17.322 20-11.549a10 10 0 0 0 4.727-10.98C196.584 118.768 196 114.25 196 110s.584-8.768 1.787-13.81a10 10 0 0 0-4.727-10.98l-20-11.549 10-17.322 20.03 11.563a10.002 10.002 0 0 0 11.867-1.393c6.667-6.3 14.716-10.9 23.926-13.674a9.999 9.999 0 0 0 7.116-9.575V20h20v23.26a10 10 0 0 0 7.116 9.575c9.206 2.773 17.261 7.375 23.94 13.678a10 10 0 0 0 11.864 1.388l20.019-11.56 10 17.32-20 11.549a10.003 10.003 0 0 0-4.727 10.979C315.415 101.234 316 105.752 316 110s-.585 8.766-1.787 13.812a10.002 10.002 0 0 0 4.727 10.979l20 11.549-10 17.32-20.019-11.56a9.998 9.998 0 0 0-11.864 1.388c-6.68 6.303-14.734 10.904-23.94 13.678a9.999 9.999 0 0 0-7.116 9.575V200h-20z"/><path d="M256 70c-22.056 0-40 17.944-40 40s17.944 40 40 40 40-17.944 40-40-17.944-40-40-40zm0 60c-11.028 0-20-8.972-20-20s8.972-20 20-20 20 8.972 20 20-8.972 20-20 20z"/></svg>