<svg xmlns="http://www.w3.org/2000/svg" viewBox="0 0 463 463" fill="#f8401d"><path d="M366.341 138.564c.056-.126.107-.254.157-.383.041-.107.082-.214.118-.323.038-.116.072-.233.104-.352.035-.125.069-.251.097-.377a8.438 8.438 0 0 0 .153-1.037c.012-.154.021-.308.023-.461.001-.044.007-.087.007-.132C367 60.785 306.215 0 231.5 0S96 60.785 96 135.5c0 .044.006.088.007.132.003.154.011.308.023.461.008.098.015.195.027.291a8.438 8.438 0 0 0 .126.746c.028.126.062.252.097.377.033.118.066.236.104.351.036.109.077.216.119.324.049.128.1.256.156.381.042.094.089.188.135.281.066.132.134.262.208.39.023.041.042.083.066.124L186.253 288H159.5c-8.547 0-15.5 6.953-15.5 15.5v144c0 8.547 6.953 15.5 15.5 15.5h144c8.547 0 15.5-6.953 15.5-15.5v-144c0-8.547-6.953-15.5-15.5-15.5h-26.753l89.185-148.641c.024-.041.043-.083.066-.124.074-.128.142-.258.208-.39.046-.094.093-.187.135-.281zM231.5 15c59.851 0 109.641 43.863 118.935 101.129C344.052 113.51 336.192 112 327.5 112c-13.46 0-24.94 3.609-32 9.374-7.06-5.765-18.54-9.374-32-9.374s-24.94 3.609-32 9.374c-7.06-5.765-18.54-9.374-32-9.374s-24.94 3.609-32 9.374c-7.06-5.765-18.54-9.374-32-9.374-8.692 0-16.552 1.51-22.935 4.129C121.859 58.863 171.649 15 231.5 15zM159 313.607l17 17v89.786l-17 17V313.607zM272 384h-81v-17h81v17zm-81 32v-17h81v17h-81zm81-81v17h-81v-17h81zm-85.393 96h89.786l17 17H169.607l17-17zM287 420.393v-89.786l17-17v123.786l-17-17zM276.393 320h-89.786l-17-17h123.786l-17 17zM224 288h-2.919L175.16 134.933c1.172-2.542 9.478-7.933 24.34-7.933 16.076 0 24.5 6.315 24.5 8.5V288zm15 0V135.5c0-2.185 8.424-8.5 24.5-8.5 14.862 0 23.168 5.391 24.34 7.933L241.919 288H239zM111.542 134.325c2.062-2.703 10.196-7.325 23.958-7.325 16.076 0 24.5 6.315 24.5 8.5 0 .047.006.092.007.139.004.195.01.39.03.586.012.125.034.246.052.369.018.119.031.237.054.355.038.195.088.386.141.575.012.043.019.087.032.131l.01.034.02.067L205.42 288h-1.673l-92.205-153.675zM257.58 288l45.073-150.243.02-.067.01-.034c.013-.043.02-.087.032-.131.053-.19.103-.38.141-.575.023-.119.037-.237.054-.355.018-.123.04-.244.052-.369a7.69 7.69 0 0 0 .03-.586c.001-.047.007-.092.007-.139 0-2.185 8.424-8.5 24.5-8.5 13.762 0 21.896 4.622 23.958 7.325L259.253 288h-1.673z"/></svg>