<svg xmlns="http://www.w3.org/2000/svg" viewBox="0 0 395.04 395.04" fill="#f8401d"><path d="M89.52 37.52H8a8 8 0 0 0-8 8v81.44a8 8 0 0 0 16 0V53.52h73.52a8 8 0 0 0 0-16zm297.52 0h-81.52a8 8 0 0 0 0 16h73.52v73.52a8 8 0 0 0 16 0V45.52a8 8 0 0 0-8-8zm-297.52 304H16v-73.44a8 8 0 0 0-16 0v81.44a8 8 0 0 0 8 8h81.52a8 8 0 0 0 0-16zm297.52-81.44a8 8 0 0 0-8 8v73.44h-73.52a8 8 0 0 0 0 16h81.52a8 8 0 0 0 8-8v-81.44a8 8 0 0 0-8-8zm-10.88-67.92c-3.2-3.6-80-88-177.2-88s-174 84.4-177.44 88a8 8 0 0 0 0 10.72c3.2 3.6 80 88 177.2 88s174.24-84.4 177.44-88a8 8 0 0 0 0-10.72zM38.8 197.52c14.16-14 56-51.76 108.8-68.8-37.657 38.137-37.657 99.463 0 137.6-52.96-17.04-94.64-54.8-108.8-68.8zm160.16 74.16h-.16c-35.04 0-63.6-33.28-63.6-74.16s28.56-74.16 63.6-74.16c35.04 0 63.6 33.28 63.6 74.16s-28.4 74.16-63.44 74.16zm51.36-5.36l-.16-.08c37.657-38.137 37.657-99.463 0-137.6 52.96 16.96 94.64 54.8 108.8 68.8-14 14.08-55.68 51.84-108.64 68.88z"/><path d="M198.96 166c-17.408 0-31.52 14.112-31.52 31.52s14.112 31.52 31.52 31.52 31.52-14.112 31.52-31.52S216.368 166 198.96 166zm0 47.04c-8.571 0-15.52-6.948-15.52-15.52S190.389 182 198.96 182s15.52 6.949 15.52 15.52-6.949 15.52-15.52 15.52z"/></svg>