<svg xmlns="http://www.w3.org/2000/svg" viewBox="0 0 512 512" fill="#f8401d"><path d="M256.556 266.016c-17.655 0-32.018 14.363-32.018 32.018s14.363 32.018 32.018 32.018c17.654-.001 32.017-14.364 32.017-32.018.001-17.655-14.362-32.018-32.017-32.018zm0 48.847c-9.28-.001-16.829-7.55-16.829-16.829 0-6.546 3.764-12.215 9.234-14.997v14.997c0 4.194 3.4 7.595 7.595 7.595h14.997c-2.781 5.469-8.451 9.234-14.997 9.234zm7.595-24.423v-7.402a16.919 16.919 0 0 1 7.402 7.402h-7.402zm10.931-276.667a7.594 7.594 0 0 0-9.145-5l-1.697.444-.102-1.751a7.595 7.595 0 0 0-15.163 0l-.102 1.751-1.697-.444a7.594 7.594 0 0 0-4.685 14.42l1.633.638-.947 1.476a7.595 7.595 0 0 0 12.267 8.913l1.113-1.357 1.112 1.357a7.585 7.585 0 0 0 5.878 2.781 7.594 7.594 0 0 0 6.39-11.694l-.947-1.476 1.633-.638a7.594 7.594 0 0 0 4.459-9.42z"/><path d="M504.405 496.498H326.674V354.345h4.383a7.595 7.595 0 0 0 0-15.19h-23.433v-77.212a7.592 7.592 0 0 0-.681-15.155h-10.065v-85.701c0-4.194-3.4-7.595-7.595-7.595h-4.773L264.007 49.646a7.595 7.595 0 0 0-14.902 0l-20.504 103.846h-4.773a7.595 7.595 0 0 0-7.595 7.595v85.701h-10.065a7.592 7.592 0 1 0-.681 15.155v13.568a7.595 7.595 0 0 0 15.19 0v-13.534h71.757v77.177h-71.757v-38.327a7.595 7.595 0 0 0-15.19 0v38.327h-23.921a7.595 7.595 0 0 0 0 15.19h4.383v142.154H8.219a7.595 7.595 0 0 0 0 15.19h496.185c4.194 0 7.595-3.4 7.595-7.595a7.593 7.593 0 0 0-7.594-7.595zM256.556 90.325l12.471 63.166h-24.944l12.473-63.166zm-25.132 78.356h46.803l.033.001.03-.001h3.397v46.356h-6.133v-36.439a7.595 7.595 0 0 0-15.189 0v36.439h-7.619v-36.439a7.595 7.595 0 0 0-15.19 0v36.439h-6.133v-46.356zm50.265 78.107h-50.265v-16.56h50.265v16.56zm-42.656 249.71V470.03a17.71 17.71 0 0 1 9.081-15.458c.437-.244.885-.461 1.335-.665v42.591h-10.416zm35.399 0h-9.793v-42.289c.219.109.439.216.654.335l.055.03a17.706 17.706 0 0 1 9.084 15.459v26.465zm37.052 0h-21.863v-26.465a32.905 32.905 0 0 0-16.821-28.694l-.068-.038c-10.023-5.584-21.99-5.582-32.011.004a32.91 32.91 0 0 0-16.877 28.725v26.468H201.14v-83.2h110.344v83.2zm.001-98.389h-10.25V374.89a7.595 7.595 0 0 0-15.19 0v23.219h-10.511V374.89a7.595 7.595 0 0 0-15.19 0v23.219h-10.511V374.89a7.595 7.595 0 0 0-15.19 0v23.219h-10.511V374.89a7.595 7.595 0 0 0-15.19 0v23.219h-7.806v-43.765h110.347v43.765z"/><path d="M385.931 448.164h-15.189a7.595 7.595 0 0 0 0 15.19h15.189a7.595 7.595 0 0 0 0-15.19zm46.581 15.19h-15.189a7.595 7.595 0 0 0 0 15.19h15.189a7.595 7.595 0 0 0 0-15.19zM68.98 442.088H53.791a7.595 7.595 0 0 0 0 15.19H68.98a7.595 7.595 0 0 0 0-15.19zm53.669 19.24H107.46a7.595 7.595 0 0 0 0 15.19h15.189a7.595 7.595 0 0 0 0-15.19zm380.746-64.017h-14.804v-50.882c0-4.194-3.4-7.595-7.595-7.595-9.393 0-17.828 4.181-23.542 10.78-5.714-6.599-14.148-10.78-23.542-10.78a7.595 7.595 0 0 0-7.595 7.595v50.883h-12.151v-9.398a7.595 7.595 0 0 0-15.19 0v16.992c0 4.194 3.4 7.595 7.595 7.595h27.34c4.194 0 7.595-3.4 7.595-7.595v-48.955c4.971 2.704 8.353 7.974 8.353 14.02a7.595 7.595 0 0 0 15.19 0c0-6.046 3.381-11.317 8.353-14.02v48.955c0 4.194 3.4 7.595 7.595 7.595h22.398a7.595 7.595 0 0 0 0-15.19z"/><path d="M406.573 338.834c-9.393 0-17.828 4.181-23.543 10.78-5.714-6.599-14.149-10.78-23.542-10.78a7.595 7.595 0 0 0-7.595 7.595v50.883h-9.618a7.594 7.594 0 1 0 0 15.189h17.213c4.194 0 7.595-3.4 7.595-7.595v-48.955c4.972 2.703 8.353 7.974 8.353 14.02a7.595 7.595 0 0 0 15.19 0c0-6.045 3.382-11.316 8.353-14.02v6.647a7.595 7.595 0 0 0 15.19 0v-16.169a7.598 7.598 0 0 0-7.596-7.595zm-237.858 58.477h-9.618v-50.882c0-4.194-3.4-7.595-7.595-7.595-9.393 0-17.828 4.181-23.543 10.78-5.714-6.599-14.148-10.78-23.542-10.78a7.595 7.595 0 0 0-7.595 7.595v50.883h-12.15v-50.883c0-4.194-3.4-7.595-7.595-7.595-9.393 0-17.828 4.181-23.542 10.78-5.714-6.599-14.149-10.78-23.542-10.78a7.595 7.595 0 0 0-7.595 7.595v50.883H7.595a7.595 7.595 0 0 0 0 15.189h22.398c4.194 0 7.595-3.4 7.595-7.595v-48.955c4.972 2.703 8.353 7.974 8.353 14.02a7.595 7.595 0 0 0 15.19 0c0-6.046 3.381-11.317 8.353-14.02v48.955c0 4.194 3.4 7.595 7.595 7.595h27.34c4.194 0 7.595-3.4 7.595-7.595v-48.955c4.971 2.704 8.353 7.974 8.353 14.02a7.595 7.595 0 0 0 15.19 0c0-6.046 3.381-11.317 8.353-14.02v48.955c0 4.194 3.4 7.595 7.595 7.595h17.213a7.595 7.595 0 1 0-.003-15.19z"/></svg>