<?xml version="1.0" encoding="iso-8859-1"?>
<!-- Generator: Adobe Illustrator 19.0.0, SVG Export Plug-In . SVG Version: 6.00 Build 0)  -->
<svg version="1.1" id="Capa_1" xmlns="http://www.w3.org/2000/svg" xmlns:xlink="http://www.w3.org/1999/xlink" x="0px" y="0px"
	 viewBox="0 0 512 512" style="fill: #f8401d" xml:space="preserve">
<g>
	<g>
		<path d="M256.556,266.016c-17.655,0-32.018,14.363-32.018,32.018s14.363,32.018,32.018,32.018
			c17.654-0.001,32.017-14.364,32.017-32.018C288.574,280.379,274.211,266.016,256.556,266.016z M256.556,314.863
			c-9.28-0.001-16.829-7.55-16.829-16.829c0-6.546,3.764-12.215,9.234-14.997v14.997c0,4.194,3.4,7.595,7.595,7.595h14.997
			C268.772,311.098,263.102,314.863,256.556,314.863z M264.151,290.44v-7.402c3.185,1.619,5.782,4.218,7.402,7.402H264.151z"/>
	</g>
</g>
<g>
	<g>
		<path d="M275.082,13.773c-1.242-3.826-5.255-6.018-9.145-5l-1.697,0.444l-0.102-1.751c-0.234-4.016-3.559-7.152-7.581-7.152
			c-4.022,0-7.348,3.136-7.582,7.152l-0.102,1.751l-1.697-0.444c-3.887-1.019-7.901,1.175-9.145,5
			c-1.243,3.826,0.713,7.956,4.46,9.42l1.633,0.638l-0.947,1.476c-2.171,3.386-1.325,7.878,1.929,10.243
			c3.255,2.365,7.788,1.781,10.338-1.33l1.113-1.357l1.112,1.357c1.497,1.826,3.676,2.781,5.878,2.781
			c1.551,0,3.115-0.474,4.46-1.451c3.255-2.364,4.101-6.856,1.93-10.243l-0.947-1.476l1.633-0.638
			C274.37,21.729,276.325,17.598,275.082,13.773z"/>
	</g>
</g>
<g>
	<g>
		<path d="M504.405,496.498H326.674V354.345h4.383c4.194,0,7.595-3.4,7.595-7.595c0-4.194-3.4-7.595-7.595-7.595h-11.977h-11.456
			v-77.212c3.875-0.344,6.914-3.596,6.914-7.56c0-4.194-3.4-7.595-7.595-7.595h-6.914h-3.151v-85.701c0-4.194-3.4-7.595-7.595-7.595
			h-4.773L264.007,49.646c-0.703-3.558-3.824-6.123-7.451-6.123c-3.627,0-6.748,2.565-7.451,6.123l-20.504,103.846h-4.773
			c-4.194,0-7.595,3.4-7.595,7.595v85.701h-3.151h-6.914c-4.194,0-7.595,3.4-7.595,7.595c0,3.964,3.039,7.216,6.914,7.56v13.568
			c0,4.194,3.4,7.595,7.595,7.595c4.194,0,7.595-3.4,7.595-7.595v-13.534h71.757v77.177h-71.757v-38.327
			c0-4.194-3.4-7.595-7.595-7.595c-4.194,0-7.595,3.4-7.595,7.595v38.327h-11.944h-11.977c-4.194,0-7.595,3.4-7.595,7.595
			s3.4,7.595,7.595,7.595h4.383v142.154H8.219c-4.194,0-7.595,3.4-7.595,7.595c0,4.194,3.4,7.595,7.595,7.595h185.325h125.534
			h185.326c4.194,0,7.595-3.4,7.595-7.595C512,499.898,508.6,496.498,504.405,496.498z M256.556,90.325l12.471,63.166h-24.944
			L256.556,90.325z M231.424,168.681h3.455c0.014,0,0.028,0,0.043,0h43.305c0.011,0,0.022,0.001,0.033,0.001
			c0.01,0,0.02-0.001,0.03-0.001h3.397v46.356h-6.133v-36.439c0.001-4.194-3.399-7.595-7.594-7.595c-4.194,0-7.595,3.4-7.595,7.595
			v36.439h-7.619v-36.439c0-4.194-3.4-7.595-7.595-7.595c-4.194,0-7.595,3.4-7.595,7.595v36.439h-6.133V168.681z M281.689,246.788
			h-50.265v-16.56h50.265V246.788z M239.033,496.498V470.03c0-6.413,3.48-12.336,9.081-15.458c0.437-0.244,0.885-0.461,1.335-0.665
			v42.591H239.033z M274.432,496.498h-9.793v-42.289c0.219,0.109,0.439,0.216,0.654,0.335c0.018,0.01,0.036,0.02,0.055,0.03
			c5.604,3.121,9.084,9.045,9.084,15.459V496.498z M311.484,496.498h-21.863v-26.465c0-11.897-6.443-22.885-16.821-28.694
			c-0.022-0.013-0.046-0.025-0.068-0.038c-10.023-5.584-21.99-5.582-32.011,0.004c-10.41,5.801-16.877,16.809-16.877,28.725v26.468
			h-22.704v-83.2h110.344V496.498z M311.485,398.109h-10.25v-23.219c0-4.194-3.4-7.595-7.595-7.595s-7.595,3.4-7.595,7.595v23.219
			h-10.511v-23.219c0-4.194-3.4-7.595-7.595-7.595s-7.595,3.4-7.595,7.595v23.219h-10.511v-23.219c0-4.194-3.4-7.595-7.595-7.595
			c-4.194,0-7.595,3.4-7.595,7.595v23.219h-10.511v-23.219c0-4.194-3.4-7.595-7.595-7.595s-7.595,3.4-7.595,7.595v23.219h-7.806
			v-43.765h11.944h86.947h11.456V398.109z"/>
	</g>
</g>
<g>
	<g>
		<path d="M385.931,448.164h-15.189c-4.194,0-7.595,3.4-7.595,7.595s3.4,7.595,7.595,7.595h15.189c4.194,0,7.595-3.4,7.595-7.595
			S390.126,448.164,385.931,448.164z"/>
	</g>
</g>
<g>
	<g>
		<path d="M432.512,463.354h-15.189c-4.194,0-7.595,3.4-7.595,7.595s3.4,7.595,7.595,7.595h15.189c4.194,0,7.595-3.4,7.595-7.595
			S436.706,463.354,432.512,463.354z"/>
	</g>
</g>
<g>
	<g>
		<path d="M68.98,442.088H53.791c-4.194,0-7.595,3.4-7.595,7.595s3.4,7.595,7.595,7.595H68.98c4.194,0,7.595-3.4,7.595-7.595
			S73.174,442.088,68.98,442.088z"/>
	</g>
</g>
<g>
	<g>
		<path d="M122.649,461.328H107.46c-4.194,0-7.595,3.4-7.595,7.595c0,4.194,3.4,7.595,7.595,7.595h15.189
			c4.194,0,7.595-3.4,7.595-7.595C130.244,464.729,126.843,461.328,122.649,461.328z"/>
	</g>
</g>
<g>
	<g>
		<path d="M503.395,397.311h-14.804v-50.882c0-4.194-3.4-7.595-7.595-7.595c-9.393,0-17.828,4.181-23.542,10.78
			c-5.714-6.599-14.148-10.78-23.542-10.78c-4.194,0-7.595,3.4-7.595,7.595v50.883h-12.151v-9.398c0-4.194-3.4-7.595-7.595-7.595
			c-4.194,0-7.595,3.4-7.595,7.595v16.992c0,4.194,3.4,7.595,7.595,7.595h27.34c4.194,0,7.595-3.4,7.595-7.595v-48.955
			c4.971,2.704,8.353,7.974,8.353,14.02c0,4.194,3.4,7.595,7.595,7.595c4.194,0,7.595-3.4,7.595-7.595
			c0-6.046,3.381-11.317,8.353-14.02v48.955c0,4.194,3.4,7.595,7.595,7.595h22.398c4.194,0,7.595-3.4,7.595-7.595
			S507.589,397.311,503.395,397.311z"/>
	</g>
</g>
<g>
	<g>
		<path d="M406.573,338.834c-9.393,0-17.828,4.181-23.543,10.78c-5.714-6.599-14.149-10.78-23.542-10.78
			c-4.194,0-7.595,3.4-7.595,7.595v50.883h-9.618c-4.194-0.001-7.595,3.399-7.595,7.594s3.4,7.595,7.595,7.595h17.213
			c4.194,0,7.595-3.4,7.595-7.595v-48.955c4.972,2.703,8.353,7.974,8.353,14.02c0,4.194,3.4,7.595,7.595,7.595
			c4.194,0,7.595-3.4,7.595-7.595c0-6.045,3.382-11.316,8.353-14.02v6.647c0,4.194,3.4,7.595,7.595,7.595
			c4.194,0,7.595-3.4,7.595-7.595v-16.169C414.167,342.235,410.767,338.834,406.573,338.834z"/>
	</g>
</g>
<g>
	<g>
		<path d="M168.715,397.311h-9.618v-50.882c0-4.194-3.4-7.595-7.595-7.595c-9.393,0-17.828,4.181-23.543,10.78
			c-5.714-6.599-14.148-10.78-23.542-10.78c-4.194,0-7.595,3.4-7.595,7.595v50.883h-12.15v-50.883c0-4.194-3.4-7.595-7.595-7.595
			c-9.393,0-17.828,4.181-23.542,10.78c-5.714-6.599-14.149-10.78-23.542-10.78c-4.194,0-7.595,3.4-7.595,7.595v50.883H7.595
			c-4.194,0-7.595,3.4-7.595,7.595s3.4,7.594,7.595,7.594h22.398c4.194,0,7.595-3.4,7.595-7.595v-48.955
			c4.972,2.703,8.353,7.974,8.353,14.02c0,4.194,3.4,7.595,7.595,7.595s7.595-3.4,7.595-7.595c0-6.046,3.381-11.317,8.353-14.02
			v48.955c0,4.194,3.4,7.595,7.595,7.595h27.34c4.194,0,7.595-3.4,7.595-7.595v-48.955c4.971,2.704,8.353,7.974,8.353,14.02
			c0,4.194,3.4,7.595,7.595,7.595c4.194,0,7.595-3.4,7.595-7.595c0-6.046,3.381-11.317,8.353-14.02v48.955
			c0,4.194,3.4,7.595,7.595,7.595h17.213c4.194,0,7.595-3.4,7.595-7.595S172.91,397.311,168.715,397.311z"/>
	</g>
</g>
<g>
</g>
<g>
</g>
<g>
</g>
<g>
</g>
<g>
</g>
<g>
</g>
<g>
</g>
<g>
</g>
<g>
</g>
<g>
</g>
<g>
</g>
<g>
</g>
<g>
</g>
<g>
</g>
<g>
</g>
</svg>
