<svg xmlns="http://www.w3.org/2000/svg" viewBox="0 0 512 512" fill="#f8401d"><path d="M511.999 234.558l-.002-165.43C511.998 31.01 480.987 0 442.869 0H277.441a10.664 10.664 0 0 0-7.541 3.124l-32.337 32.337a483.749 483.749 0 0 0-16.73-1.104c-71.146-3.446-131.857 8.964-154.665 31.614-9.137 9.075-10.756 18.199-10.507 24.253.904 21.842 27.038 41.488 72.317 54.821L20.177 252.847C7.166 265.858.001 283.218.001 301.728c0 18.511 7.166 35.87 20.176 48.879l140.059 140.06h-10.902c-5.89 0-10.667 4.775-10.667 10.667 0 5.89 4.776 10.667 10.667 10.667h213.331c5.89 0 10.667-4.776 10.667-10.667s-4.776-10.667-10.667-10.667H260.309l248.565-248.565a10.667 10.667 0 0 0 3.125-7.544zM76.977 89.342c-.039-.959-.16-3.88 4.225-8.235C95.91 66.5 144.739 52.399 217.456 55.568l-72.098 72.098c-49.463-12.444-68.023-29.675-68.381-38.324zm167.091 387.395c-8.981 8.982-20.985 13.929-33.796 13.929-12.813 0-24.815-4.946-33.795-13.929L35.261 335.521c-8.982-8.98-13.929-20.982-13.929-33.794 0-12.813 4.947-24.815 13.929-33.796L245.552 57.642c30.865 3.228 59.361 9.437 82.052 18.02 15.049 5.693 25.198 11.572 31.565 16.862-7.687 7.721-12.448 18.359-12.448 30.091 0 3.309.391 6.528 1.108 9.622.048.262.112.522.181.781.027.111.052.223.081.334a.114.114 0 0 0 .009.026c4.781 18.332 21.478 31.902 41.287 31.902 23.525 0 42.665-19.139 42.665-42.666 0-23.527-19.139-42.668-42.665-42.668-3.784 0-7.452.501-10.947 1.43-9.035-9.546-23.582-18.214-43.289-25.668-20.087-7.598-44.272-13.446-70.477-17.188l17.185-17.186h161.009c26.354 0 47.795 21.441 47.795 47.795l.002 161.011-246.597 246.597zM389.31 104.461a29.403 29.403 0 0 0-.311-3.162c.13-.002.257-.02.388-.02 11.762 0 21.331 9.571 21.331 21.334 0 11.762-9.569 21.332-21.331 21.332-7.336 0-13.817-3.723-17.658-9.378 14.875-10.568 17.918-21.928 17.581-30.106z"/><path d="M457.45 90.13c-5.621 1.761-8.751 7.746-6.99 13.367a63.896 63.896 0 0 1 2.923 19.116c0 35.289-28.708 63.997-63.996 63.997-35.29 0-63.998-28.708-63.998-63.997 0-5.891-4.775-10.667-10.667-10.667-5.891 0-10.667 4.775-10.667 10.667 0 47.051 38.279 85.33 85.331 85.33 47.05 0 85.329-38.279 85.329-85.33a85.145 85.145 0 0 0-3.899-25.493c-1.76-5.622-7.746-8.752-13.366-6.99zm-14.209-8.568c2.657 0 5.319-.988 7.389-2.975 4.247-4.081 4.383-10.833.302-15.082a84.44 84.44 0 0 0-5.473-5.215c-4.444-3.869-11.181-3.402-15.05 1.041-3.868 4.443-3.402 11.18 1.042 15.049a64.224 64.224 0 0 1 4.097 3.904 10.629 10.629 0 0 0 7.693 3.278zM311.212 327.954c1.967-2.759 3.727-5.595 5.223-8.469 9.554-18.349 7.793-40.86-4.486-57.347-11.115-14.925-28.314-21.81-46.006-18.416-12.667 2.429-24.743 9.281-36.422 15.908a551.404 551.404 0 0 1-7.764 4.352c-15.616 8.521-30.525 9.123-39.884 1.609-7.723-6.202-10.293-16.948-6.878-28.745.987-3.405 2.737-6.727 5.044-9.897l17.643 17.645a10.638 10.638 0 0 0 7.543 3.124c2.73 0 5.458-1.041 7.541-3.124 4.165-4.164 4.166-10.918 0-15.085l-17.014-17.017c7.679-5.078 16.419-8.945 24.505-10.931 5.721-1.406 9.218-7.184 7.811-12.906-1.407-5.721-7.184-9.22-12.906-7.811-11.379 2.797-23.941 8.377-34.804 16.251l-8.151-8.151c-4.164-4.164-10.917-4.165-15.085 0-4.166 4.164-4.166 10.918-.001 15.085l7.666 7.667c-4.645 5.781-8.256 12.211-10.285 19.216-5.805 20.049-.436 39.71 14.014 51.313 16.302 13.089 40.025 13.27 63.458.483.819-.447 1.639-.909 2.46-1.364l47.167 47.167c-10.256 8.062-21.897 12.006-29.134 9.714-5.617-1.78-11.611 1.332-13.39 6.949-1.779 5.616 1.332 11.611 6.948 13.389 3.596 1.138 7.325 1.669 11.119 1.669 13.508-.001 27.808-6.724 39.561-16.618l11.264 11.265a10.632 10.632 0 0 0 7.541 3.124c2.731 0 5.46-1.042 7.542-3.124 4.165-4.165 4.165-10.918.001-15.085l-11.841-11.84zm-13.698-18.324a53.472 53.472 0 0 1-1.672 2.953l-41.935-41.936c5.562-2.77 11.006-5.005 16.054-5.973 9.611-1.842 18.676 1.877 24.88 10.206 7.425 9.97 8.473 23.611 2.673 34.75zm-160.991 54.107c-4.164-4.166-10.918-4.169-15.085-.004-4.166 4.164-4.167 10.918-.003 15.086l4.364 4.366a10.636 10.636 0 0 0 7.545 3.126c2.729 0 5.458-1.04 7.54-3.122 4.166-4.164 4.169-10.918.004-15.086l-4.365-4.366zm96.379 51.126l-22.628 22.629-45.255-45.257c-4.165-4.165-10.919-4.165-15.085-.001-4.166 4.165-4.166 10.919-.001 15.086l45.257 45.257c4.159 4.158 9.621 6.238 15.085 6.238 5.462 0 10.926-2.079 15.086-6.238l22.628-22.628c4.165-4.165 4.165-10.919 0-15.086-4.167-4.166-10.921-4.166-15.087 0z"/></svg>